<?xml version="1.0" encoding="UTF-8" standalone="no"?>
<!-- Generator: Adobe Illustrator 19.0.0, SVG Export Plug-In . SVG Version: 6.00 Build 0)  -->

<svg
   version="1.1"
   id="图层_1"
   x="0px"
   y="0px"
   viewBox="0 0 999.99998 315.06858"
   xml:space="preserve"
   sodipodi:docname="Mixue.svg"
   width="1000"
   height="315.06857"
   inkscape:version="1.2.1 (9c6d41e410, 2022-07-14)"
   xmlns:inkscape="http://www.inkscape.org/namespaces/inkscape"
   xmlns:sodipodi="http://sodipodi.sourceforge.net/DTD/sodipodi-0.dtd"
   xmlns="http://www.w3.org/2000/svg"
   xmlns:svg="http://www.w3.org/2000/svg"><defs
   id="defs66">
	
	

		
		
	
			
			
			
			
			
		
			
			
		
				
				
				
				
				
				
				
				
				
				
				
				
				
				
				
				
				
			
					
					
					
					
					
				
			
			
			
			
		
				
				
				
			
						
					
						
					
		
		
		
		
		
		
		
		
		
		
		
		
		
		
		
		
	</defs><sodipodi:namedview
   id="namedview64"
   pagecolor="#ffffff"
   bordercolor="#666666"
   borderopacity="1.0"
   inkscape:showpageshadow="2"
   inkscape:pageopacity="0.0"
   inkscape:pagecheckerboard="0"
   inkscape:deskcolor="#d1d1d1"
   showgrid="false"
   inkscape:zoom="0.70710678"
   inkscape:cx="502.04582"
   inkscape:cy="128.69343"
   inkscape:window-width="1366"
   inkscape:window-height="705"
   inkscape:window-x="-8"
   inkscape:window-y="-8"
   inkscape:window-maximized="1"
   inkscape:current-layer="图层_1" />
<style
   type="text/css"
   id="style2">
	.st0{fill-rule:evenodd;clip-rule:evenodd;fill:#F9BF2C;}
	.st1{fill-rule:evenodd;clip-rule:evenodd;fill:#FFFFFF;}
	.st2{fill-rule:evenodd;clip-rule:evenodd;fill:#F29600;}
	.st3{fill-rule:evenodd;clip-rule:evenodd;fill:#0B308E;}
	.st4{fill-rule:evenodd;clip-rule:evenodd;fill:#E60012;}
	.st5{fill-rule:evenodd;clip-rule:evenodd;fill:#231815;}
	.st6{fill:#E60012;}
</style>

<g
   id="g3286"><g
     id="g1067"><path
       id="path1048"
       style="stroke-width:1.58365"
       class="st4"
       d="m 323.3418,47.734375 c -2.53384,0.158365 -5.06788,0.791838 -7.44336,1.900391 -3.32566,1.74201 -5.86004,4.276229 -7.12696,7.285156 l -0.1582,0.158203 v 0.158203 l -0.1582,0.158203 c -0.63346,1.425282 -0.95117,3.168307 -0.95117,4.751953 V 196.75586 c 0,7.91823 7.44392,14.41211 16.4707,14.41211 9.02678,0 16.4707,-6.49388 16.4707,-14.41211 V 121.375 c 0.15836,-3.16729 0.63186,-4.43421 3.48242,0 l 31.19922,47.50977 c 6.33459,9.66024 22.96229,9.66024 29.29688,0 L 435.62109,121.375 c 2.85056,-4.43421 3.32602,-3.16729 3.48438,0 v 75.38086 c 0,7.91823 7.44392,14.41211 16.4707,14.41211 9.02678,0 16.46875,-6.49388 16.46875,-14.41211 V 62.304688 c 0,-1.742012 -0.31576,-3.326672 -0.94922,-4.751954 l -0.1582,-0.158203 v -0.158203 l -0.1582,-0.158203 c -1.42528,-3.008928 -3.8013,-5.543145 -7.12696,-7.285156 -2.37546,-1.108552 -4.90952,-1.742026 -7.44336,-1.900391 h -0.3164 -0.31641 c -2.53384,0 -4.90985,0.475593 -7.12695,1.425781 l -0.31641,0.158203 h -0.1582 l -0.31641,0.158204 c -2.53382,1.108552 -4.75229,3.009296 -6.33593,5.384765 l -47.50782,72.056639 -2.53515,3.80078 c -1.90038,2.53384 -1.58254,2.534 -3.00782,-0.1582 l -2.53515,-3.80078 -47.50977,-72.056642 c -1.42528,-2.375468 -3.80015,-4.117849 -6.33398,-5.384766 l -0.31641,-0.158203 h -0.1582 l -0.31641,-0.158203 c -2.05874,-0.950188 -4.59312,-1.425781 -7.12695,-1.425781 h -0.31641 z" /><path
       id="path1051"
       style="stroke-width:1.58365"
       class="st4"
       d="m 511.79492,47.734375 c -9.02678,0 -16.46875,6.809962 -16.46875,15.044922 V 196.12305 c 0,8.23496 7.44197,15.04492 16.46875,15.04492 9.02678,0 16.4707,-6.80996 16.4707,-15.04492 V 62.779297 c 10e-6,-8.23496 -7.44392,-15.044922 -16.4707,-15.044922 z" /><path
       id="path1054"
       style="stroke-width:1.58365"
       class="st4"
       d="m 895.03711,47.734375 c -9.02679,0 -16.46891,6.493878 -16.31055,14.412109 V 196.75586 c 0,7.91823 7.44392,14.41211 16.47071,14.41211 h 0.3164 0.31641 87.41797 c 9.02678,0 16.46875,-6.49388 16.46875,-14.41211 0,-7.91823 -7.44197,-14.41016 -16.46875,-14.41016 H 969.15234 915.625 c -2.21711,0 -3.95898,-1.58399 -3.95898,-3.48437 v -30.72266 c 0,-1.90037 1.74187,-3.48437 3.95898,-3.48437 h 53.52734 0.79297 10.13477 c 9.02678,0 16.4707,-6.49388 16.4707,-14.41211 0,-7.91823 -7.44392,-14.41016 -16.4707,-14.41016 H 969.62695 969.15234 915.625 c -2.21711,0 -3.95898,-1.584 -3.95898,-3.48437 V 80.041016 c 0,-1.900375 1.74187,-3.484375 3.95898,-3.484375 h 53.52734 14.09571 c 9.02678,0 16.46875,-6.491926 16.46875,-14.410157 0,-7.918231 -7.44197,-14.412109 -16.46875,-14.412109 H 896.7793 Z" /><path
       id="path1057"
       style="stroke-width:1.58365"
       class="st4"
       d="m 562.17578,47.3125 c -3.16049,0.102999 -6.31508,1.017226 -9.04687,2.798828 -7.28478,4.592574 -9.02699,13.618379 -3.64258,20.111328 l 37.6914,45.292964 c 13.461,16.1532 13.77708,11.87676 0.63282,27.39649 l -38.16602,45.92578 c -5.22603,6.33458 -3.64219,15.36234 3.64258,20.11328 7.28477,4.59258 17.5785,3.16662 22.96289,-3.16797 l 34.52344,-41.65039 c 9.97697,-12.19408 6.81014,-12.19391 16.78711,-0.1582 l 34.68164,41.65039 c 5.38439,6.49294 15.67812,7.91696 22.96289,3.16602 7.28477,-4.59258 9.02697,-13.77675 3.64258,-20.11133 l -39.27539,-47.19336 c -10.61043,-12.82754 -11.8772,-9.81812 -2.0586,-21.53711 l 41.33399,-49.726564 c 5.22603,-6.334584 3.64219,-15.36039 -3.64258,-20.111328 -7.44313,-4.750939 -17.73686,-3.326934 -22.96289,3.166016 l -36.10742,43.392578 c -8.5517,10.293698 -5.70205,9.819258 -14.41211,-0.632813 L 576.0918,53.277344 C 572.72655,49.21925 567.44326,47.140835 562.17578,47.3125 Z" /><path
       id="path1060"
       style="stroke-width:1.58365"
       class="st4"
       d="m 840.56055,47.101562 c -8.23496,10e-7 -15.04558,5.383682 -16.3125,12.19336 -0.63346,2.375469 -0.94907,4.751968 -1.10743,6.652344 v 80.291014 c 10e-6,18.84538 -17.57959,34.20703 -39.11718,34.20703 h -2.69141 c -21.53759,0 -39.11523,-15.36165 -39.11523,-34.20703 0,-30.56438 -0.95118,-54.318762 -0.95118,-84.566405 10e-6,-7.918231 -7.44392,-14.412109 -16.4707,-14.412109 -9.02679,0 -16.46875,6.493878 -16.46875,14.412109 v 86.941405 c 0,34.68185 32.4637,63.0293 71.89649,63.0293 h 0.79296 4.11719 c 39.59115,0 71.89844,-28.34745 71.89844,-63.0293 V 61.511719 c 0,-7.918231 -7.44392,-14.410157 -16.4707,-14.410157 z" /></g><g
     id="g3182"><path
       id="path3095"
       class="st6"
       d="m 602.53828,280.84786 v -34.04843 c 0,-0.95019 0.79182,-1.74201 1.74201,-1.74201 h 3.80075 c 0.95019,0 1.74202,0.79182 1.74202,1.74201 v 34.04843 c 0,0.95019 -0.79183,1.74201 -1.74202,1.74201 h -3.80075 c -0.95019,0 -1.74201,-0.79182 -1.74201,-1.74201 z"
       style="stroke-width:1.58365" /><path
       id="path3098"
       class="st6"
       d="m 647.98897,280.84786 v -34.04843 c 0,-0.95019 0.79182,-1.74201 1.74201,-1.74201 h 21.22088 c 0.95019,0 1.74201,0.79182 1.74201,1.74201 v 3.00893 c 0,0.95019 -0.79182,1.74201 -1.74201,1.74201 H 656.3823 c -0.63346,0 -1.10855,0.4751 -1.10855,1.10856 v 6.65132 c 0,0.63346 0.47509,1.10855 1.10855,1.10855 h 12.03572 c 0.95019,0 1.74202,0.79183 1.74202,1.74201 v 3.00894 c 0,0.95018 -0.79183,1.74201 -1.74202,1.74201 H 656.3823 c -0.63346,0 -1.10855,0.47509 -1.10855,1.10855 v 6.96805 c 0,0.63346 0.47509,1.10855 1.10855,1.10855 h 14.56956 c 0.95019,0 1.74201,0.79183 1.74201,1.74202 v 3.00893 c 0,0.95019 -0.79182,1.74201 -1.74201,1.74201 h -21.22088 c -0.95019,0 -1.74201,-0.79182 -1.74201,-1.74201 z"
       style="stroke-width:1.58365" /><path
       id="path3101"
       class="st6"
       d="m 631.36067,282.9066 c -4.11749,0 -7.44315,-1.42528 -10.13535,-4.11748 -3.80075,-3.80076 -3.64239,-8.5517 -3.64239,-15.04466 0,-6.49295 -0.15836,-11.2439 3.64239,-15.04465 2.6922,-2.6922 6.01786,-4.11749 10.13535,-4.11749 3.95912,0 6.65132,1.10856 9.02679,3.00893 0.79182,0.63346 0.95019,1.90038 0.15836,2.69221 l -2.37547,2.37547 c -0.63346,0.63346 -1.74201,0.63346 -2.37547,0.15836 -1.26692,-0.95019 -2.37547,-1.58365 -4.43421,-1.58365 -2.05875,0 -3.64239,0.79183 -4.59258,1.90038 -1.42529,1.58365 -1.90038,3.32566 -1.90038,10.61044 0,7.28478 0.47509,9.02679 1.90038,10.61044 1.10855,1.26692 2.6922,1.90038 4.59258,1.90038 2.05874,0 3.16729,-0.63346 4.43421,-1.58365 0.63346,-0.63346 1.74201,-0.47509 2.37547,0.15837 l 2.37547,2.37547 c 0.79183,0.79182 0.63346,2.05874 -0.15836,2.6922 -2.37547,1.90038 -5.06767,3.00893 -9.02679,3.00893 z"
       style="stroke-width:1.58365" /><path
       id="path3104"
       class="st6"
       d="m 762.01161,280.84786 v -34.04843 c 0,-0.95019 0.79182,-1.74201 1.74201,-1.74201 h 21.22088 c 0.95019,0 1.74202,0.79182 1.74202,1.74201 v 3.00893 c 0,0.95019 -0.79183,1.74201 -1.74202,1.74201 h -14.56956 c -0.63346,0 -1.10855,0.4751 -1.10855,1.10856 v 6.65132 c 0,0.63346 0.47509,1.10855 1.10855,1.10855 h 12.03573 c 0.95019,0 1.74201,0.79183 1.74201,1.74201 v 3.00894 c 0,0.95018 -0.79182,1.74201 -1.74201,1.74201 h -12.03573 c -0.63346,0 -1.10855,0.47509 -1.10855,1.10855 v 6.96805 c 0,0.63346 0.47509,1.10855 1.10855,1.10855 h 14.56956 c 0.95019,0 1.74202,0.79183 1.74202,1.74202 v 3.00893 c 0,0.95019 -0.79183,1.74201 -1.74202,1.74201 h -21.22088 c -0.95019,0 -1.74201,-0.79182 -1.74201,-1.74201 z"
       style="stroke-width:1.58365" /><path
       id="path3107"
       class="st6"
       d="m 937.00469,280.84786 v -34.04843 c 0,-0.95019 0.79183,-1.74201 1.74201,-1.74201 h 21.22088 c 0.95019,0 1.74202,0.79182 1.74202,1.74201 v 3.00893 c 0,0.95019 -0.79183,1.74201 -1.74202,1.74201 h -14.56955 c -0.63346,0 -1.10856,0.4751 -1.10856,1.10856 v 6.65132 c 0,0.63346 0.4751,1.10855 1.10856,1.10855 h 12.03572 c 0.95019,0 1.74201,0.79183 1.74201,1.74201 v 3.00894 c 0,0.95018 -0.79182,1.74201 -1.74201,1.74201 h -12.03572 c -0.63346,0 -1.10856,0.47509 -1.10856,1.10855 v 6.96805 c 0,0.63346 0.4751,1.10855 1.10856,1.10855 h 14.56955 c 0.95019,0 1.74202,0.79183 1.74202,1.74202 v 3.00893 c 0,0.95019 -0.79183,1.74201 -1.74202,1.74201 H 938.7467 c -0.95018,0 -1.74201,-0.79182 -1.74201,-1.74201 z"
       style="stroke-width:1.58365" /><path
       id="path3110"
       class="st6"
       d="m 857.50557,280.84786 v -18.68705 c 0,-0.31673 -0.47509,-0.47509 -0.63346,-0.15836 l -5.85949,11.71899 c -0.31673,0.79183 -1.10856,1.10856 -1.90038,1.10856 h -2.37547 c -0.79183,0 -1.58365,-0.4751 -1.90038,-1.10856 l -6.01786,-11.71899 c -0.15837,-0.31673 -0.63346,-0.15837 -0.63346,0.15836 v 18.68705 c 0,0.95019 -0.79182,1.74201 -1.74201,1.74201 h -3.80076 c -0.95019,0 -1.74201,-0.79182 -1.74201,-1.74201 v -34.04843 c 0,-0.95019 0.79182,-1.74201 1.74201,-1.74201 h 3.95912 c 0.95019,0 1.90038,0.47509 2.21711,1.42528 l 8.86843,18.21195 c 0.15836,0.31673 0.47509,0.31673 0.63346,0 l 8.71006,-18.21195 c 0.47509,-0.79182 1.26692,-1.42528 2.2171,-1.42528 h 3.95912 c 0.95019,0 1.74202,0.79182 1.74202,1.74201 v 34.04843 c 0,0.95019 -0.79183,1.74201 -1.74202,1.74201 h -3.80075 c -1.10855,0 -1.90038,-0.79182 -1.90038,-1.74201 z"
       style="stroke-width:1.58365" /><path
       id="path3113"
       class="st6"
       d="m 711.96834,282.9066 c -4.11748,0 -7.44315,-1.42528 -10.13535,-4.11748 -3.80075,-3.80076 -3.64239,-8.5517 -3.64239,-15.04466 0,-6.49295 -0.15836,-11.2439 3.64239,-15.04465 2.6922,-2.6922 6.01787,-4.11749 10.13535,-4.11749 3.95912,0 6.65132,1.10856 9.02679,3.00893 0.79183,0.63346 0.95019,1.90038 0.15837,2.69221 l -2.37547,2.37547 c -0.63346,0.63346 -1.74202,0.63346 -2.37548,0.15836 -1.26691,-0.95019 -2.37547,-1.58365 -4.43421,-1.58365 -2.05874,0 -3.64239,0.79183 -4.59258,1.90038 -1.42528,1.58365 -1.90038,3.32566 -1.90038,10.61044 0,7.28478 0.4751,9.02679 1.90038,10.61044 1.10855,1.26692 2.6922,1.90038 4.59258,1.90038 2.05874,0 3.1673,-0.63346 4.43421,-1.58365 0.63346,-0.63346 1.74202,-0.47509 2.37548,0.15837 l 2.37547,2.37547 c 0.79182,0.79182 0.63346,2.05874 -0.15837,2.6922 -2.53383,1.90038 -5.22604,3.00893 -9.02679,3.00893 z"
       style="stroke-width:1.58365" /><path
       id="path3116"
       class="st6"
       d="m 747.75878,281.63968 -6.49296,-13.461 c -0.15836,-0.31673 -0.47509,-0.63346 -0.95018,-0.63346 h -3.48403 c -0.63346,0 -1.10855,0.47509 -1.10855,1.10855 v 12.19409 c 0,0.95019 -0.79183,1.74201 -1.74202,1.74201 h -3.95912 c -0.95018,0 -1.74201,-0.79182 -1.74201,-1.74201 v -34.04843 c 0,-0.95019 0.79183,-1.74201 1.74201,-1.74201 h 12.98592 c 7.60151,0 12.19408,5.22604 12.19408,11.56063 0,4.90931 -2.85056,8.0766 -6.17622,9.66025 -0.31673,0.15836 -0.63346,0.63346 -0.31673,0.95019 l 6.96805,13.461 c 0.47509,0.95019 -0.15837,2.05875 -1.26692,2.05875 h -5.06767 c -0.63346,-0.15837 -1.26692,-0.63346 -1.58365,-1.10856 z m -5.22604,-30.08931 h -5.85949 c -0.63346,0 -1.10856,0.4751 -1.10856,1.10856 v 7.75987 c 0,0.63346 0.4751,1.10856 1.10856,1.10856 h 5.85949 c 3.1673,0 5.3844,-2.05875 5.3844,-4.90931 0,-3.00893 -2.2171,-5.06768 -5.3844,-5.06768 z"
       style="stroke-width:1.58365" /><path
       id="path3119"
       class="st6"
       d="m 817.28092,281.32295 -1.58365,-4.90931 c -0.15836,-0.31673 -0.31673,-0.47509 -0.63346,-0.47509 h -12.35245 c -0.31673,0 -0.63346,0.15836 -0.63346,0.47509 l -1.74201,4.90931 c -0.31673,0.79183 -0.95019,1.26692 -1.74202,1.26692 h -3.80075 c -1.26692,0 -2.05874,-1.26692 -1.74201,-2.37547 l 12.35245,-34.04843 c 0.31673,-0.63346 0.95019,-1.10855 1.74201,-1.10855 h 3.32566 c 0.79183,0 1.42529,0.47509 1.74202,1.10855 l 12.51081,34.04843 c 0.4751,1.10855 -0.47509,2.37547 -1.74201,2.37547 h -3.80075 c -0.95019,0 -1.58365,-0.47509 -1.90038,-1.26692 z m -8.71006,-24.38817 -4.11749,11.71899 c -0.15836,0.47509 0.15837,0.95019 0.63346,0.95019 h 7.44314 c 0.4751,0 0.79183,-0.4751 0.63346,-0.95019 l -3.95912,-11.71899 c 0,-0.31673 -0.47509,-0.31673 -0.63345,0 z"
       style="stroke-width:1.58365" /><path
       id="path3122"
       class="st6"
       d="m 992.43236,281.32295 -1.58364,-4.90931 c -0.15837,-0.31673 -0.31673,-0.47509 -0.63346,-0.47509 h -12.35245 c -0.31673,0 -0.63346,0.15836 -0.63346,0.47509 l -1.74202,4.90931 c -0.31673,0.79183 -0.95019,1.26692 -1.74201,1.26692 h -3.80075 c -1.26692,0 -2.05875,-1.26692 -1.74202,-2.37547 l 12.35246,-34.04843 c 0.31673,-0.63346 0.95019,-1.10855 1.74201,-1.10855 h 3.32566 c 0.79182,0 1.42528,0.47509 1.74201,1.10855 l 12.51082,34.04843 c 0.47509,1.10855 -0.47509,2.37547 -1.74201,2.37547 h -3.80076 c -1.10855,0 -1.74201,-0.47509 -1.90038,-1.26692 z m -8.86842,-24.38817 -4.11749,11.71899 c -0.15836,0.47509 0.15837,0.95019 0.63346,0.95019 h 7.44315 c 0.47509,0 0.79182,-0.4751 0.63346,-0.95019 l -3.95912,-11.71899 c 0,-0.31673 -0.4751,-0.31673 -0.63346,0 z"
       style="stroke-width:1.58365" /><path
       id="path3125"
       class="st6"
       d="m 895.82985,281.48132 -1.90038,-2.21711 c -1.74201,1.42528 -4.27585,3.64239 -9.66025,3.64239 -8.23497,0 -12.35245,-4.27585 -12.35245,-11.40226 0,-4.75095 3.48402,-7.91824 6.80968,-10.13535 -1.58364,-1.74201 -3.80075,-4.43421 -3.80075,-7.91824 0,-5.06767 3.80075,-8.71006 9.97698,-8.71006 5.8595,0 9.66025,3.80075 9.66025,8.86843 0,2.85056 -1.58365,4.9093 -3.80075,6.49295 0,0 -1.74202,1.26692 -2.69221,1.90038 l 6.3346,7.44314 c 0.95018,-1.26691 1.58364,-3.00893 1.74201,-5.06767 0.15836,-0.95019 0.79182,-1.58365 1.74201,-1.58365 h 3.00893 c 1.10856,0 1.90038,0.95019 1.74201,2.05875 -0.47509,3.95912 -1.58364,7.12641 -3.80075,9.66025 l 4.75094,5.70113 c 0.79183,0.95019 0.15837,2.37547 -1.10855,2.37547 h -4.59258 c -0.79182,0 -1.58365,-0.31673 -2.05874,-1.10855 z m -13.61937,-15.83648 c -2.21711,1.58365 -3.80076,3.00893 -3.80076,5.70113 0,3.1673 2.53384,5.22604 5.70114,5.22604 2.2171,0 3.80075,-0.63346 5.54276,-2.21711 z m 2.53383,-15.20302 c -2.05874,0 -3.16729,1.26692 -3.16729,3.00893 0,1.42528 1.10855,2.6922 2.53384,4.27585 0.47509,-0.31673 1.58364,-1.10855 1.58364,-1.10855 1.26692,-0.79183 2.21711,-1.90038 2.21711,-3.1673 0,-1.58365 -1.10855,-3.00893 -3.1673,-3.00893 z"
       style="stroke-width:1.58365" /><path
       id="path3128"
       class="st6"
       d="m 920.53475,252.18383 v 28.66403 c 0,0.95019 -0.79182,1.74201 -1.74201,1.74201 h -3.80075 c -0.95019,0 -1.74202,-0.79182 -1.74202,-1.74201 v -28.66403 c 0,-0.31673 -0.31672,-0.63346 -0.63345,-0.63346 h -7.28478 c -0.95019,0 -1.74202,-0.79182 -1.74202,-1.74201 v -3.00893 c 0,-0.95019 0.79183,-1.74201 1.74202,-1.74201 h 23.43798 c 0.95019,0 1.74202,0.79182 1.74202,1.74201 v 3.00893 c 0,0.95019 -0.79183,1.74201 -1.74202,1.74201 h -7.28478 c -0.63346,0 -0.95019,0.31673 -0.95019,0.63346 z"
       style="stroke-width:1.58365" /><path
       id="path3131"
       class="st6"
       d="M 421.84406,280.68949 V 246.9578 c 0,-0.95019 0.79183,-1.74202 1.74202,-1.74202 h 21.06251 c 0.95019,0 1.74201,0.79183 1.74201,1.74202 v 3.00893 c 0,0.95018 -0.79182,1.74201 -1.74201,1.74201 H 430.2374 c -0.63346,0 -1.10856,0.47509 -1.10856,1.10855 v 6.65132 c 0,0.63346 0.4751,1.10856 1.10856,1.10856 h 11.87735 c 0.95019,0 1.74202,0.79182 1.74202,1.74201 v 3.00893 c 0,0.95019 -0.79183,1.74201 -1.74202,1.74201 H 430.2374 c -0.63346,0 -1.10856,0.4751 -1.10856,1.10856 v 6.96805 c 0,0.63346 0.4751,1.10855 1.10856,1.10855 h 14.41119 c 0.95019,0 1.74201,0.79182 1.74201,1.74201 v 3.00893 c 0,0.95019 -0.79182,1.74202 -1.74201,1.74202 h -21.06251 c -0.95019,-0.31673 -1.74202,-1.10856 -1.74202,-2.05875 z"
       style="stroke-width:1.58365" /><path
       id="path3134"
       class="st6"
       d="m 405.69085,282.74824 c -4.11748,0 -7.44314,-1.42529 -9.97698,-4.11749 -3.80075,-3.80075 -3.64239,-8.39333 -3.64239,-14.88629 0,-6.49295 -0.15836,-11.08553 3.64239,-14.88629 2.69221,-2.6922 6.01787,-4.11748 9.97698,-4.11748 3.95912,0 6.49296,1.10855 8.86843,3.00893 0.79183,0.63346 0.95019,1.90038 0.15837,2.6922 l -2.37547,2.37547 c -0.63346,0.63346 -1.58365,0.63346 -2.37548,0.15837 -1.10855,-0.95019 -2.37547,-1.58365 -4.43421,-1.58365 -2.05874,0 -3.48402,0.79182 -4.59258,1.90038 -1.42528,1.58364 -1.90038,3.32566 -1.90038,10.45207 0,7.12642 0.4751,8.86843 1.90038,10.45208 1.10856,1.26692 2.6922,1.90037 4.59258,1.90037 1.90038,0 3.1673,-0.63345 4.43421,-1.58364 0.63346,-0.63346 1.74202,-0.4751 2.37548,0.15836 l 2.37547,2.37547 c 0.79182,0.79183 0.63346,1.90038 -0.15837,2.6922 -2.2171,1.74202 -4.90931,3.00894 -8.86843,3.00894 z"
       style="stroke-width:1.58365" /><path
       id="path3137"
       class="st6"
       d="m 377.97702,281.48132 -13.46101,-20.90415 c -0.15836,-0.31673 -0.63346,-0.15837 -0.63346,0.15836 v 19.95396 c 0,0.95019 -0.79182,1.74202 -1.74201,1.74202 h -3.80075 c -0.95019,0 -1.74202,-0.79183 -1.74202,-1.74202 V 246.9578 c 0,-0.95019 0.79183,-1.74202 1.74202,-1.74202 h 3.64239 c 0.79182,0 1.42528,0.31673 1.74201,0.95019 l 13.461,20.90415 c 0.15837,0.31673 0.63346,0.15837 0.63346,-0.15836 v -19.7956 c 0,-0.95019 0.79183,-1.74201 1.74202,-1.74201 h 3.80075 c 0.95019,0 1.74201,0.79182 1.74201,1.74201 v 33.7317 c 0,0.95019 -0.79182,1.74201 -1.74201,1.74201 h -3.64239 c -0.63346,-0.15836 -1.26692,-0.63346 -1.74201,-1.10855 z"
       style="stroke-width:1.58365" /><path
       id="path3140"
       class="st6"
       d="m 320.64897,282.9066 c -4.90931,0 -9.50189,-1.10855 -12.03573,-1.74201 -0.95018,-0.31673 -1.42528,-1.10856 -1.26691,-2.05874 l 0.63346,-3.00894 c 0.15836,-0.95018 1.26691,-1.58364 2.2171,-1.26691 5.22604,1.42528 17.1034,3.80075 17.26176,-1.90038 0.15837,-3.64239 -4.75094,-5.06767 -8.86842,-5.8595 -1.90038,-0.47509 -3.95912,-0.79182 -5.54277,-1.58365 -4.90931,-2.53383 -7.28478,-8.71006 -4.59258,-13.9361 4.11748,-8.55169 15.51975,-7.28478 22.96289,-5.06767 0.95019,0.31673 1.42529,1.26692 1.10856,2.21711 l -1.10856,3.00893 c -0.31673,0.95019 -1.26692,1.42528 -2.2171,1.10855 -4.43422,-1.42528 -12.51082,-3.00893 -14.72793,1.58365 -1.26692,2.53384 -0.15836,5.22604 2.53384,6.01786 l 9.66025,2.6922 c 4.75094,1.58365 7.60151,5.38441 7.44314,10.29371 0,7.28478 -6.96805,9.50189 -13.461,9.50189 z"
       style="stroke-width:1.58365" /><path
       id="path3143"
       class="st6"
       d="M 341.07802,280.68949 V 246.9578 c 0,-0.95019 0.79183,-1.74202 1.74202,-1.74202 h 3.80075 c 0.95019,0 1.74201,0.79183 1.74201,1.74202 v 33.73169 c 0,0.95019 -0.79182,1.74202 -1.74201,1.74202 h -3.80075 c -0.95019,0 -1.74202,-0.79183 -1.74202,-1.74202 z"
       style="stroke-width:1.58365" /><path
       id="path3146"
       class="st6"
       d="m 500.86809,243.7905 h -4.11749 c -4.9093,0 -9.02679,3.95912 -9.02679,9.02679 v 6.65132 c 0,2.85057 0.95019,5.22604 2.6922,6.96805 1.58365,1.58365 3.80076,2.53384 6.17623,2.53384 2.53384,0.15836 4.90931,-0.15836 6.96805,-0.79182 v 1.90037 c 0,4.27585 -3.48403,7.75988 -7.75988,7.75988 h -2.85056 -1.10855 -1.10856 c -1.10855,0 -1.90038,0.79182 -1.90038,1.90037 v 2.21711 c 0,1.10856 0.79183,1.90038 1.90038,1.90038 h 1.10856 1.10855 2.85056 c 7.75988,0 13.93611,-6.17623 13.93611,-13.9361 v -17.1034 c 0.15836,-5.06767 -3.95912,-9.02679 -8.86843,-9.02679 z m 2.85056,17.73686 c -2.05874,0.95018 -4.27585,1.26691 -6.80968,1.26691 v 0 c -0.63346,0 -1.42528,-0.15836 -2.05874,-0.63346 -0.4751,-0.47509 -0.79183,-1.42528 -0.79183,-2.6922 v -6.65132 c 0,-1.58365 1.26692,-2.85056 2.85057,-2.85056 h 4.11748 c 1.58365,0 2.85057,1.26691 2.85057,2.85056 v 8.71007 z"
       style="stroke-width:1.58365" /><path
       id="path3149"
       class="st6"
       d="m 526.04809,243.7905 h -4.11749 c -4.9093,0 -9.02679,3.95912 -9.02679,9.02679 v 6.65132 c 0,2.85057 0.95019,5.22604 2.6922,6.96805 1.58365,1.58365 3.80076,2.53384 6.17623,2.53384 2.53384,0.15836 4.90931,-0.15836 6.96805,-0.79182 v 1.90037 c 0,4.27585 -3.48403,7.75988 -7.75988,7.75988 h -2.85056 -1.10855 -1.10856 c -1.10855,0 -1.90038,0.79182 -1.90038,1.90037 v 2.21711 c 0,1.10856 0.79183,1.90038 1.90038,1.90038 h 1.10856 1.10855 2.85056 c 7.75988,0 13.93611,-6.17623 13.93611,-13.9361 v -17.1034 c 0.15836,-5.06767 -3.95912,-9.02679 -8.86843,-9.02679 z m 2.85056,17.73686 c -2.05874,0.95018 -4.27585,1.26691 -6.80968,1.26691 v 0 c -0.63346,0 -1.42528,-0.15836 -2.05874,-0.63346 -0.4751,-0.47509 -0.79183,-1.42528 -0.79183,-2.6922 v -6.65132 c 0,-1.58365 1.26692,-2.85056 2.85057,-2.85056 h 4.11748 c 1.58365,0 2.85057,1.26691 2.85057,2.85056 v 8.71007 z"
       style="stroke-width:1.58365" /><path
       id="path3152"
       class="st6"
       d="m 558.67123,244.74069 c -0.63346,-0.79183 -1.42528,-1.10855 -2.37547,-1.10855 h -15.04465 -1.26692 -1.10856 c -1.10855,0 -1.90037,0.79182 -1.90037,1.90037 v 2.21711 c 0,1.10855 0.79182,1.90038 1.90037,1.90038 h 1.10856 1.26692 11.08553 l -7.60151,28.82239 c 0,0 0,0.15836 0,0.15836 l -0.63346,2.21711 c -0.31673,1.10855 0.31673,2.05874 1.42529,2.37547 l 0.79182,0.15836 c 0.15836,0 0.15836,0 0.31673,0.15837 0.15836,0 0.15836,0 0.31673,0 l 0.79182,0.15836 c 1.10856,0.31673 2.05874,-0.31673 2.37547,-1.42528 l 0.63346,-2.21711 c 0,-0.15836 0,-0.15836 0,-0.31673 l 8.71007,-32.62314 c 0,-0.63346 -0.15837,-1.58365 -0.79183,-2.37547 z"
       style="stroke-width:1.58365" /><path
       id="path3155"
       class="st6"
       d="m 482.8145,277.5222 h -3.64239 v -30.72277 c 0,-1.10855 -0.63346,-2.05874 -1.42528,-2.53384 -0.95019,-0.63345 -2.05874,-0.63345 -3.00893,-0.15836 -0.15837,0.15836 -0.31673,0.15836 -0.4751,0.31673 -0.15836,0 -0.15836,0 -0.31672,0.15836 l -6.01787,3.00893 c -0.79182,0.31673 -1.10855,1.26692 -0.63346,2.05875 l 1.42529,2.85056 c 0.31673,0.79183 1.26692,1.10856 2.05874,0.63346 l 2.53384,-1.26692 v 25.81346 h -3.64239 c -1.10856,0 -1.90038,0.79183 -1.90038,1.90038 v 0.63346 c 0,0.15836 0,0.47509 0,0.63346 0,0.15836 0,0.47509 0,0.63346 v 0.47509 c 0,1.10856 0.79182,1.90038 1.90038,1.90038 h 1.10855 11.2439 1.10855 c 1.10856,0 1.90038,-0.79182 1.90038,-1.90038 v -2.37547 c -0.31673,-1.10855 -1.10855,-2.05874 -2.21711,-2.05874 z"
       style="stroke-width:1.58365" /><path
       id="path3158"
       style="fill:#e60012;stroke-width:1.58365"
       class="st6"
       d="m 584.95981,263.74448 a 4.7509432,4.7509432 0 0 1 -4.75095,4.75094 4.7509432,4.7509432 0 0 1 -4.75094,-4.75094 4.7509432,4.7509432 0 0 1 4.75094,-4.75095 4.7509432,4.7509432 0 0 1 4.75095,4.75095 z" /></g><g
     id="g3025"><path
       d="m 75.645295,104.01989 c 0,-24.906176 19.52287,-46.054627 46.633825,-53.630193 0.0445,0.015 0.0896,0.04507 0.14938,0.06014 5.51182,1.788675 13.50319,2.810776 21.91282,2.810776 8.40962,0 16.401,-1.022101 21.91282,-2.810776 0.0445,-0.015 0.0897,-0.03007 0.14938,-0.06014 27.12589,7.575566 46.63382,28.724017 46.63382,53.630193 0,31.26424 -30.75561,56.62133 -68.69601,56.62133 -37.92545,0 -68.696008,-25.35709 -68.696008,-56.62133"
       id="path2950"
       fill="#ffffff"
       style="fill-rule:nonzero;stroke:none;stroke-width:6.84932" /><path
       d="m 134.42303,82.029707 c -2.10614,-4.990253 -6.07943,-8.342144 -10.63526,-8.342144 -1.32941,0 -2.61401,0.285617 -3.82391,0.826699 -0.73193,0.225479 -1.44891,0.601233 -2.13602,1.112288 -3.34592,2.49513 -5.73587,7.154698 -6.19892,12.640972 -0.0151,0.180343 -0.0301,0.375754 -0.0445,0.556165 -0.0151,0.135274 -0.0151,0.255548 -0.0151,0.390822 -0.0151,0.345685 -0.0301,0.676369 -0.0301,1.022102 0,5.576459 1.74765,9.845229 5.01889,13.106929 3.30111,3.27673 8.6038,3.24667 11.35224,-0.87179 1.91196,-2.870899 2.55426,-7.891214 2.28539,-11.107824 l -3.91354,-2.389911 3.64467,-3.081328 c -0.20911,-2.85587 -1.18004,-5.561432 -2.43476,-7.60563 1.77752,1.007068 3.28617,2.720589 4.33178,4.885041 0.37342,0.781602 1.34435,1.067191 2.06133,0.586233 0.58253,-0.360754 0.80661,-1.097254 0.53774,-1.728548"
       id="path2953"
       fill="#0b318f"
       style="fill-rule:nonzero;stroke:none;stroke-width:6.84932" /><path
       d="m 174.11107,100.98365 c -3.19656,-0.12027 -7.12503,-0.75155 -11.5763,-2.765682 -3.33099,-1.503089 -5.81056,-2.254631 -6.85616,-2.525192 -0.10459,-0.03014 -0.20911,-0.06027 -0.29877,-0.07514 -0.14938,-0.04521 -0.23897,-0.06027 -0.23897,-0.06027 v 0 c -0.71698,-0.150343 -1.4489,-0.24048 -2.2107,-0.24048 -5.73587,0 -10.39627,4.674603 -10.39627,10.461494 0,4.91509 3.37581,9.04859 7.93164,10.16088 v 0 c 10.1274,2.6304 23.7949,-3.15649 28.76897,-8.76301 4.97408,-5.59149 -1.74764,-6.05745 -5.12344,-6.19272"
       id="path2956"
       fill="#f39800"
       style="fill-rule:nonzero;stroke:none;stroke-width:6.84932" /><path
       d="m 252.21749,264.36935 -0.0445,-0.15035 c -1.61322,-6.41818 -4.36165,-15.34652 -5.78068,-19.87082 1.29953,-1.33775 2.43476,-2.85587 3.39074,-4.53933 4.86951,-8.67282 4.45127,-21.04324 -1.19498,-34.82655 -6.40804,-15.66219 -16.53544,-25.5525 -23.21235,-30.54276 -2.62894,-11.21304 -8.39469,-16.30851 -10.63526,-17.93185 -0.59747,-0.42089 -1.06053,-1.00706 -1.34434,-1.69848 -1.6879,-4.1335 -3.91354,-6.5685 -5.57156,-7.93631 -0.6274,-0.51103 -2.2107,-1.74358 -4.25709,-2.93102 4.22721,-4.43411 7.7225,-9.31915 10.42613,-14.57996 4.10772,-8.01146 6.19893,-16.53397 6.19893,-25.34207 0,-8.808095 -2.09121,-17.330602 -6.19893,-25.342067 -3.91382,-7.620624 -9.48538,-14.444642 -16.55066,-20.261594 -7.78226,-6.418187 -16.93874,-11.243101 -26.90183,-14.309401 0.0596,-2.480095 0.70205,-4.41908 0.91116,-4.975222 0.0445,-0.105219 0.0747,-0.210432 0.11952,-0.330678 l 0.0596,-0.18037 0.0596,-0.150308 c 0.13445,-0.36074 0.26884,-0.721482 0.38836,-1.097255 l 1.35928,-3.938091 1.49371,-4.328895 c 5.10852,-1.803705 8.6785,-6.944268 8.09595,-12.806312 -0.56761,-5.681673 -5.07864,-10.2961547 -10.72489,-10.9274518 -7.33414,-0.8266986 -13.56294,4.9601918 -13.56294,12.1750158 0,0.826698 0.0897,1.638365 0.23897,2.435002 -0.70205,0.84173 -1.50866,1.608305 -2.22564,1.848799 -0.0596,0.03007 -0.10458,0.03007 -0.13445,0.04507 -0.2539,-0.105219 -0.94104,-0.631294 -1.79246,-1.999107 1.79246,-2.675497 2.55426,-6.027384 1.94183,-9.439395 -1.01572,-5.6516119 -5.79561,-9.96547528 -11.48668,-10.4013709 -7.42376,-0.55614267 -13.65256,5.3660252 -13.65256,12.7161269 0,2.585312 0.77673,5.050377 2.15095,7.109608 -0.83648,1.36781 -1.53853,1.893891 -1.79246,1.999107 -0.0301,0 -0.0747,-0.015 -0.13445,-0.04507 -0.70205,-0.255527 -1.52359,-1.007069 -2.22564,-1.848798 0.16431,-0.796637 0.23897,-1.608304 0.23897,-2.435003 0,-7.214824 -6.22879,-13.0017139 -13.56294,-12.1750154 -5.64625,0.6312973 -10.15727,5.2457784 -10.72489,10.9274514 -0.58253,5.862045 2.98744,11.002607 8.09595,12.806313 l 1.49372,4.328894 1.35928,3.938091 c 0.11952,0.36074 0.2539,0.736514 0.38835,1.097255 l 0.0596,0.150308 0.0596,0.18037 c 0.0445,0.105219 0.0747,0.225466 0.11952,0.330678 0.20911,0.556144 0.85142,2.480096 0.91117,4.960192 -9.96308,3.0663 -19.119564,7.906244 -26.901831,14.324431 -7.065274,5.831983 -12.636836,12.640975 -16.55037,20.261632 -4.107719,8.011459 -6.198926,16.533973 -6.198926,25.34207 0,8.80809 2.091207,17.33061 6.198926,25.34207 2.360068,4.58441 5.31763,8.88325 8.842794,12.8514 -3.928472,2.20954 -7.09515,5.5464 -8.962294,9.48449 -0.418219,0.87179 -1.07548,1.57824 -1.941829,1.99911 -2.688692,1.32272 -8.842804,4.96019 -12.382911,11.99464 -3.091993,0.0603 -6.900969,-0.28562 -10.680071,-1.74358 -0.02986,-0.0151 -1.224848,-0.46596 -1.628151,-0.6463 l -0.865664,-12.03977 c 0.702047,-0.49603 1.359282,-1.03713 1.956769,-1.6534 2.808186,-2.81077 4.212279,-6.41818 3.943411,-10.16087 -0.164309,-2.29972 -0.955979,-4.41908 -2.225638,-6.23782 0.1195,-0.25555 0.209123,-0.5261 0.238993,-0.81166 l 9.007111,-66.180983 c 0.164308,-0.210432 0.313678,-0.435897 0.463055,-0.661356 2.121074,-3.201581 2.569189,-7.500413 1.180033,-11.228072 -0.941041,-2.540219 -2.688689,-4.524296 -4.899389,-5.696705 0.388366,-1.473027 0.5228,-2.961084 0.358492,-4.494234 -0.657235,-5.997322 -5.676122,-10.221 -7.558205,-11.603841 1.31447,-4.05834 0.866355,-7.395195 0.07469,-9.755044 C 47.399117,16.449963 41.334628,12.48181 36.793731,10.993753 35.195454,10.467672 34.358973,9.58085 34.090104,8.1228541 33.836173,6.7550437 34.16479,5.4623877 34.16479,5.4623877 34.478471,4.3951951 34.209602,3.237817 33.47768,2.4111186 32.74576,1.58442 31.64041,1.1785861 30.549997,1.3589567 30.131756,1.4341111 20.138794,3.11757 15.090033,11.264308 c -2.494506,4.028277 -3.330988,8.823129 -2.479569,14.29437 0.224057,1.457996 -0.31368,2.931023 -1.433968,3.892999 -2.7484377,2.374879 -5.9300535,6.102539 -6.3931056,10.837267 -0.2539317,2.615373 -0.074686,5.471241 1.2397846,8.01146 -6.79640918,4.58442 -6.93084363,12.971652 -4.8247037,17.300547 0.6871095,1.412903 1.8073967,3.096359 3.569982,4.674605 L 23.141164,134.41233 c 0.08962,0.30062 0.209123,0.57117 0.373431,0.8267 -0.970915,1.96905 -1.448904,4.16355 -1.284596,6.43322 0.343555,4.68964 3.301113,8.64276 7.528331,10.82224 l 0.343554,4.77981 -1.822333,0.18035 c -2.375009,0.24048 -4.615584,1.0221 -6.497667,2.2396 -6.915906,4.5243 -7.856947,13.3324 -6.557414,19.51009 1.120288,5.29087 4.122657,10.25106 8.962298,14.77535 1.374219,1.27763 5.661185,4.74976 8.992172,6.16267 l 3.838851,53.35963 c -1.075476,3.60742 -2.165889,7.45532 -2.972496,10.68696 l -0.04479,0.15034 c -1.269658,5.05038 -3.390736,13.49773 4.914327,21.04324 0.134431,0.12027 0.268869,0.22548 0.403301,0.34568 l 1.523591,21.28373 c 0.164308,2.31476 1.224847,4.41908 2.957558,5.9372 1.583322,1.38286 3.555027,2.11938 5.631293,2.11938 0.209123,0 0.41824,0 0.642301,-0.0301 2.479569,-0.18034 4.720143,-1.39787 6.243734,-3.39698 1.31447,-1.72855 1.882083,-3.90803 1.732711,-6.08751 l -0.851422,-11.75407 c 6.602227,1.6534 12.950523,3.11139 18.566893,4.40405 3.450486,0.79663 7.588082,1.81874 11.217808,2.75065 5.153322,1.30768 10.157274,3.14146 14.99691,5.35099 12.60696,5.72677 26.58815,8.76301 41.0772,8.76301 14.47411,0 28.47023,-3.03624 41.07719,-8.76301 4.83965,-2.19451 9.84359,-4.04331 14.99692,-5.35099 3.61479,-0.91689 7.76732,-1.95402 11.2178,-2.75065 5.64626,-1.29266 12.03936,-2.76569 18.70133,-4.43411 8.29013,-2.0893 14.22019,-4.82492 18.14866,-8.38724 8.40962,-7.51544 6.28854,-15.9628 5.01888,-21.01317 M 207.51057,158.79243 c 0.55267,1.65339 2.68868,3.05126 4.09278,4.35895 2.16589,2.01414 5.40725,6.89918 5.42219,8.16177 -7.30427,0.76658 -15.53465,1.50309 -23.21235,1.50309 -1.53853,0 -3.06212,-0.0301 -4.55584,-0.0902 -8.33493,-0.37576 -17.0433,-4.07337 -22.49536,-7.71085 11.44186,-2.96109 21.94269,-8.1768 30.69587,-15.39163 0.23897,-0.21041 0.49294,-0.40582 0.73191,-0.6163 1.77753,0.76658 3.74924,2.01415 5.27283,3.26171 0.59746,0.49603 2.64387,2.28469 4.04797,6.5234 M 117.75315,23.559571 c -3.30111,0 -5.9898,-2.690528 -5.9898,-6.027384 0,-3.321825 2.67375,-6.027384 5.9898,-6.027384 3.30112,0 5.98981,2.690528 5.98981,6.027384 0,1.18744 -0.34356,2.299725 -0.94105,3.23164 h 0.0151 c 0,0 2.64388,5.366025 7.02047,6.929237 0.7618,0.270555 1.50865,0.405835 2.22563,0.405835 3.80898,0 7.06528,-3.637473 9.2013,-9.589703 -2.03145,-1.112285 -3.40567,-3.261701 -3.40567,-5.741797 0,-3.607412 2.91274,-6.5234032 6.49766,-6.5234032 3.58492,0 6.48273,2.931022 6.48273,6.5234032 0,2.480096 -1.37422,4.644543 -3.40567,5.741797 2.13601,5.967261 5.39231,9.589703 9.20129,9.589703 0.71699,0 1.46384,-0.13528 2.22564,-0.405835 4.37659,-1.563212 7.02046,-6.929237 7.02046,-6.929237 h 0.0151 c -0.59774,-0.931915 -0.9413,-2.0442 -0.9413,-3.23164 0,-3.321825 2.67375,-6.027384 5.9898,-6.027384 3.30112,0 5.9898,2.690528 5.9898,6.027384 0,3.321825 -2.67375,6.027384 -5.9898,6.027384 -0.20911,0 -0.40329,-0.015 -0.59746,-0.03007 l -2.71857,7.861152 -1.35928,3.938091 c -0.13445,0.375774 -0.2689,0.766576 -0.41822,1.142348 -0.0596,0.165342 -0.11952,0.330678 -0.17924,0.49602 -0.40329,1.097254 -1.29954,3.953122 -1.29954,7.560534 -4.73508,1.53315 -11.93479,2.510158 -20.0158,2.510158 -8.08101,0 -15.29565,-0.977008 -20.01579,-2.510158 0,-3.607412 -0.89624,-6.448248 -1.29954,-7.560534 -0.0596,-0.165342 -0.11952,-0.330678 -0.17924,-0.49602 -0.13446,-0.375774 -0.28384,-0.766576 -0.41822,-1.142348 l -1.35935,-3.938084 -2.71856,-7.861152 c -0.20911,0.015 -0.40329,0.03007 -0.6124,0.03007 M 75.645295,104.01989 c 0,-24.906176 19.52287,-46.054627 46.633825,-53.630193 0.0445,0.015 0.0896,0.04507 0.14938,0.06014 5.51182,1.788675 13.50319,2.810776 21.91282,2.810776 8.40962,0 16.401,-1.022101 21.91282,-2.810776 0.0445,-0.015 0.0897,-0.03007 0.14938,-0.06014 27.12589,7.575566 46.63382,28.724017 46.63382,53.630193 0,31.26424 -30.75561,56.62133 -68.69601,56.62133 -37.92545,0 -68.696008,-25.35709 -68.696008,-56.62133 m -0.791671,56.48606 c 3.390733,-1.86383 4.690267,-2.16445 5.272815,-4.04331 1.314473,-4.26877 4.764959,-7.47035 8.573932,-9.03356 0.821548,0.75154 1.672965,1.47302 2.539322,2.1945 9.05192,7.45533 19.97099,12.79129 31.84603,15.69225 -2.95756,1.8488 -6.81135,3.66754 -10.59045,4.38901 -2.68869,0.51103 -5.67612,0.76658 -8.63368,0.76658 -2.55426,0 -5.093572,-0.19541 -7.42377,-0.57116 -4.361651,-0.73652 -9.664343,-2.55526 -12.875836,-3.36692 -2.808185,-0.72148 -7.976445,-1.8488 -13.891699,-1.95402 -0.01507,-0.0151 1.180172,-1.89389 5.183336,-4.07337 M 7.0837137,62.624836 C 6.6505356,61.738014 6.560913,60.745976 6.560913,59.768968 c 0,-1.668428 0.5228007,-3.186547 1.4787788,-4.539327 0.3734295,-0.52608 0.8066069,-1.03713 1.2696589,-1.488057 0.2389945,-0.240494 1.1352243,-1.277625 1.5086533,-1.067193 1.538528,0.856761 2.957558,1.157378 4.227217,0.886822 0.911167,-0.195401 1.702837,-1.097254 1.747648,-1.999107 0.02988,-0.480988 -0.552674,-0.946946 -1.060538,-1.35278 l -0.08962,-0.07515 c -3.584919,-2.855868 -5.093572,-4.59945 -4.555835,-9.213931 0.492926,-4.223679 5.407253,-7.83109 7.259461,-8.85319 1.239785,-0.691421 1.852209,-2.179478 1.433968,-3.532258 -1.732711,-5.651612 -1.508653,-10.326216 0.672173,-13.873505 1.882082,-3.081331 4.974074,-4.8700058 7.214649,-5.8319825 0.05973,-0.030069 0.134432,-0.030069 0.194185,0.015 0.05973,0.030068 0.104562,0.090185 0.1195,0.1653425 0.373432,2.269664 1.777523,6.312971 6.960719,8.011461 3.31605,1.082223 7.468581,3.998214 8.768114,7.83109 1.015727,2.991146 0.253931,6.373094 -2.270449,10.070692 l -0.134439,0.195429 c -0.926104,1.36781 -1.89702,2.765682 -1.224848,3.246671 0.642302,0.450924 3.599857,0.09018 5.392317,-0.826699 0.07469,-0.04507 0.164308,-0.03007 0.238993,0.015 1.762585,1.232533 4.83964,4.163555 5.183195,7.350102 0.238993,2.299725 -0.672171,4.659574 -2.733501,7.004391 -0.716984,0.826699 -1.030664,1.442965 -0.926104,1.878861 0.07469,0.300617 0.358494,0.54111 0.851419,0.751544 0.552678,0.225466 3.121866,0.120247 4.406463,-0.706451 0.05973,-0.04507 0.14937,-0.04507 0.209123,-0.015 1.89702,0.826698 3.301113,2.38991 3.345925,4.569388 0.02986,1.382841 -0.388363,2.419972 -1.075476,3.427041 -1.53853,2.269664 -4.451276,3.697597 -6.900971,4.659574 -4.331777,1.713521 -9.858528,2.885931 -15.564524,3.306794 C 25.53111,70.290584 18.734701,69.629228 13.880123,67.97583 10.57901,66.833483 8.2338754,64.984685 7.0837137,62.624836 m 5.1831953,11.754152 c 4.406463,1.427932 9.798779,2.179479 15.594398,2.179479 1.6879,0 3.405673,-0.06027 5.138384,-0.195411 6.42298,-0.465958 12.472532,-1.758616 17.461544,-3.742691 0.911167,-0.360754 1.837271,-0.751541 2.763375,-1.202466 l -8.021256,58.996221 c -3.077056,2.34481 -6.796409,3.21661 -11.083376,2.58531 -2.360071,-0.34571 -4.346714,-1.0672 -5.481938,-1.56321 z M 31.774844,191.2441 c -5.42219,-4.20865 -8.678492,-8.74797 -9.679282,-13.46767 -0.851418,-4.01324 -0.41824,-9.61976 3.555045,-12.22011 0.955979,-0.6313 2.136014,-1.0221 3.42061,-1.15737 0.104562,-0.0151 0.194185,-0.0301 0.29874,-0.0452 4.58571,9.99554 3.540108,20.93802 2.404884,26.89026 M 28.309422,141.2514 c -0.08962,-1.14235 0.164308,-2.23961 0.642295,-3.24668 2.091202,0.66137 4.809766,1.2626 7.797199,1.2626 2.942621,0 6.169048,-0.58623 9.305852,-2.25464 0.522801,0.8718 0.851419,1.8488 0.926104,2.88593 0.134438,1.95402 -0.642301,3.893 -2.195762,5.44118 -1.672963,1.66843 -4.018097,2.70556 -6.602226,2.88593 -5.138385,0.37576 -9.574722,-2.75065 -9.873465,-6.97432 m 23.615655,167.20354 c -0.53774,0.6313 -1.299534,1.0221 -2.136015,1.08222 v 0 c -0.836481,0.0603 -1.628151,-0.21041 -2.255512,-0.75154 -0.627363,-0.5411 -1.015726,-1.30769 -1.075476,-2.14942 L 38.078327,190.01157 c 0.926104,-6.19273 1.344344,-15.34653 -1.747648,-24.41016 l -0.821545,-11.40844 c 0.612425,0.0603 1.239785,0.10521 1.867146,0.10521 0.41824,0 0.836481,-0.0151 1.254722,-0.0452 1.060539,-0.0751 2.091202,-0.25554 3.091993,-0.51102 l 10.963877,152.44321 c 0.0448,0.8267 -0.224055,1.63837 -0.761795,2.26966 M 77.452692,291.2145 c -5.616377,-1.29265 -11.964671,-2.75065 -18.55196,-4.40405 -0.731921,-0.18037 -1.448905,-0.37577 -2.150952,-0.57117 l -2.285385,-31.74522 c 1.00079,3.11139 2.195763,6.17769 3.599856,9.18387 4.705206,10.08572 11.426927,19.13431 19.970989,26.89024 0.388356,0.36076 0.791664,0.70646 1.194973,1.05217 -0.567603,-0.13528 -1.165103,-0.27055 -1.777521,-0.40582 m 65.708578,15.97783 c -46.648763,0 -84.604093,-34.42072 -84.604093,-76.71763 0,-12.20507 3.062118,-23.86904 9.11167,-34.67625 0.238993,-0.42089 0.224055,-1.05216 0,-1.38284 -0.224055,-0.31568 -0.657233,-0.46596 -1.120288,-0.40582 -1.045601,0.15034 -2.464631,1.23253 -3.674542,2.2396 -2.793249,2.32976 -4.555835,4.96017 -6.228797,7.53045 -2.046391,-0.30062 -4.272028,-1.08223 -5.915116,-1.74358 L 48.48953,170.95241 c 3.943411,1.30769 7.797198,1.71352 11.083374,1.71352 5.242944,0 9.00711,-1.03713 9.261042,-1.11228 0.03014,-0.0151 0.07466,-0.0301 0.104589,-0.0301 l 0.627328,0.0151 c 3.898603,0.0603 8.036199,0.6463 12.308226,1.74358 0.926103,0.24048 2.150952,0.60123 3.450487,0.97701 2.957555,0.87179 6.632096,1.95402 9.963082,2.51015 2.70363,0.45096 5.571572,0.67637 8.573932,0.67637 3.43555,0 6.85616,-0.30061 9.93322,-0.88682 6.46779,-1.23253 12.72646,-4.80988 16.43088,-7.7409 l 2.21069,-1.75861 c 3.91354,0.51103 7.90176,0.7816 11.9348,0.7816 4.51102,0 8.94736,-0.33068 13.29407,-0.97701 l 2.9725,2.31476 c 6.28855,4.88504 17.49142,10.04063 28.32086,10.52162 1.53853,0.0751 3.18162,0.10521 4.85458,0.10521 8.11088,0 16.64,-0.78161 23.92933,-1.54818 l 0.49295,-0.0452 c 4.72014,2.87091 16.71469,12.29527 23.75009,29.50563 8.03619,19.63033 3.36086,32.76733 -7.58808,35.51798 0.0445,-0.31562 0.10459,-0.61631 0.14938,-0.93192 1.03067,-7.28997 1.26966,-15.10604 -0.65726,-22.35092 -0.20911,-0.81167 -0.46308,-1.60831 -0.73191,-2.40495 -0.80661,-2.34481 -1.77753,-4.64454 -3.07707,-6.74886 -0.83648,-1.35278 -3.16667,-5.45621 -5.228,-4.53933 -0.83648,0.37576 -0.86636,1.458 -0.62733,2.17948 2.36007,7.12464 3.55504,14.54989 3.55504,22.0503 -0.0151,42.28188 -37.97027,76.7026 -84.61903,76.7026 m 99.33214,-27.13074 c -2.98744,2.72059 -8.06607,4.99025 -15.08654,6.74886 -6.58729,1.6534 -12.93558,3.1114 -18.55195,4.40405 -0.59747,0.13528 -1.19498,0.27055 -1.79246,0.40582 0.40328,-0.34568 0.8066,-0.70645 1.19497,-1.05216 8.54405,-7.75593 15.26578,-16.80452 19.97099,-26.89025 1.92689,-4.13349 3.46542,-8.44735 4.60064,-12.86644 0.35849,-0.0301 0.71699,-0.0751 1.06054,-0.13527 2.27045,-0.34569 4.40646,-1.00707 6.37817,-1.93899 1.47878,4.74976 3.62973,11.9195 4.97408,17.25546 l 0.0445,0.15034 c 1.19497,4.76479 2.3302,9.27406 -2.79325,13.9186"
       id="path2959"
       fill="#231815"
       style="fill-rule:nonzero;stroke:none;stroke-width:6.84932" /><path
       d="m 207.51057,158.79243 c 0.55267,1.65339 2.68868,3.05126 4.09278,4.35895 2.16589,2.01414 5.40725,6.89918 5.42219,8.16177 -7.30427,0.76658 -15.53465,1.50309 -23.21235,1.50309 -1.53853,0 -3.06212,-0.0301 -4.55584,-0.0902 -8.33493,-0.37576 -17.0433,-4.07337 -22.49536,-7.71085 11.44186,-2.96109 21.94269,-8.1768 30.69587,-15.39163 0.23897,-0.21041 0.49294,-0.40582 0.73191,-0.6163 1.77753,0.76658 3.74924,2.01415 5.27283,3.26171 0.59746,0.49603 2.64387,2.28469 4.04797,6.5234"
       id="path2962"
       fill="#e60012"
       style="fill-rule:nonzero;stroke:none;stroke-width:6.84932" /><path
       d="m 117.75315,23.559571 c -3.30111,0 -5.9898,-2.690528 -5.9898,-6.027384 0,-3.321825 2.67375,-6.027384 5.9898,-6.027384 3.31606,0 5.98981,2.690528 5.98981,6.027384 0,1.18744 -0.34356,2.299725 -0.94105,3.23164 h 0.0151 c 0,0 2.64388,5.366025 7.02047,6.929237 0.7618,0.270555 1.50865,0.405835 2.22563,0.405835 3.80898,0 7.06528,-3.637473 9.2013,-9.604734 -2.03145,-1.112285 -3.40567,-3.261701 -3.40567,-5.741797 0,-3.6074118 2.91274,-6.5234031 6.48272,-6.5234031 3.58492,0 6.48274,2.9310221 6.48274,6.5234031 0,2.480096 -1.37422,4.644543 -3.40568,5.741797 2.13601,5.967261 5.39232,9.604734 9.20129,9.604734 0.71699,0 1.46384,-0.13528 2.22564,-0.405835 4.37646,-1.563212 7.02033,-6.929237 7.02033,-6.929237 h 0.0151 c -0.59746,-0.931915 -0.94104,-2.0442 -0.94104,-3.23164 0,-3.321825 2.67376,-6.027384 5.9898,-6.027384 3.30112,0 5.9898,2.690528 5.9898,6.027384 0,3.321825 -2.67374,6.027384 -5.9898,6.027384 -0.20911,0 -0.40328,-0.015 -0.59746,-0.03007 l -2.71856,7.861152 -1.35929,3.938091 c -0.13445,0.375774 -0.2689,0.766576 -0.41821,1.142348 -0.0596,0.165342 -0.11952,0.330678 -0.17925,0.49602 -0.40329,1.097254 -1.29954,3.953122 -1.29954,7.560534 -4.73508,1.53315 -11.93479,2.510158 -20.0158,2.510158 -8.081,0 -15.29565,-0.977008 -20.01579,-2.510158 0,-3.607412 -0.89623,-6.448248 -1.29954,-7.560534 -0.0596,-0.165342 -0.11952,-0.330678 -0.17924,-0.49602 -0.13445,-0.375774 -0.28384,-0.766576 -0.41822,-1.142348 l -1.35947,-3.938084 -2.71857,-7.861152 c -0.19417,0.015 -0.38835,0.03007 -0.59746,0.03007"
       id="path2965"
       fill="#ffffff"
       style="fill-rule:nonzero;stroke:none;stroke-width:6.84932" /><path
       d="m 74.853624,160.50595 c 3.390733,-1.86383 4.690267,-2.16445 5.272815,-4.04331 1.314472,-4.26877 4.764959,-7.47035 8.573931,-9.03356 0.821548,0.75154 1.672966,1.47302 2.539322,2.1945 9.051918,7.45533 19.970988,12.79129 31.846028,15.69225 -2.95756,1.8488 -6.81134,3.66754 -10.59045,4.38901 -2.68869,0.51103 -5.67612,0.76658 -8.63368,0.76658 -2.55425,0 -5.093569,-0.19541 -7.423768,-0.57116 -4.36165,-0.73652 -9.664342,-2.55526 -12.875835,-3.36692 -2.808185,-0.72148 -7.976446,-1.8488 -13.891699,-1.95402 -0.01507,-0.0151 1.180171,-1.89389 5.183336,-4.07337"
       id="path2968"
       fill="#e60012"
       style="fill-rule:nonzero;stroke:none;stroke-width:6.84932" /><path
       d="M 7.0837137,62.624836 C 6.6505356,61.738014 6.560913,60.745976 6.560913,59.768968 c 0,-1.668428 0.5228007,-3.186547 1.4787788,-4.539327 0.3734295,-0.52608 0.8066069,-1.03713 1.2696589,-1.488057 0.2389945,-0.240494 1.1352243,-1.277625 1.5086533,-1.067193 1.538528,0.856761 2.957558,1.157378 4.227217,0.886822 0.911167,-0.195401 1.702837,-1.097254 1.747648,-1.999107 0.02988,-0.480988 -0.552674,-0.946946 -1.060538,-1.35278 l -0.08962,-0.07515 c -3.584919,-2.855868 -5.093572,-4.59945 -4.555835,-9.213931 0.492926,-4.223679 5.407253,-7.83109 7.259461,-8.85319 1.254722,-0.691421 1.852209,-2.179478 1.433968,-3.532258 -1.732711,-5.651612 -1.508653,-10.326216 0.672173,-13.873505 1.882082,-3.081331 4.974074,-4.8700058 7.214649,-5.8169517 0.05973,-0.030069 0.134432,-0.030069 0.194185,0.015 0.05973,0.030068 0.104562,0.090185 0.1195,0.1653425 0.373432,2.2696632 1.777523,6.3129712 6.960719,8.0114612 3.31605,1.082223 7.468581,3.998214 8.768114,7.83109 1.015727,2.991145 0.253931,6.373094 -2.270449,10.070691 l -0.134439,0.19543 c -0.926104,1.36781 -1.89702,2.765682 -1.224848,3.24667 0.642302,0.450925 3.599857,0.09018 5.392317,-0.826698 0.07469,-0.04507 0.164308,-0.03007 0.238993,0.015 1.762585,1.232533 4.83964,4.163555 5.183195,7.350102 0.238993,2.299725 -0.672171,4.659574 -2.733501,7.004392 -0.716984,0.826698 -1.030664,1.442964 -0.926104,1.87886 0.07469,0.300616 0.358494,0.54111 0.851419,0.751544 0.552678,0.225466 3.121866,0.120246 4.406463,-0.706452 0.05973,-0.04507 0.14937,-0.04507 0.209123,-0.015 1.89702,0.826699 3.301113,2.389911 3.345925,4.569389 0.02986,1.382841 -0.388363,2.419972 -1.075476,3.427041 -1.53853,2.269664 -4.451276,3.697597 -6.900971,4.659574 C 43.739512,68.201293 38.212761,69.3737 32.506765,69.79457 25.53111,70.305618 18.734701,69.644262 13.880123,67.990861 10.57901,66.833483 8.2338754,64.984685 7.0837137,62.624836"
       id="path2971"
       fill="#ffffff"
       style="fill-rule:nonzero;stroke:none;stroke-width:6.84932" /><path
       d="m 12.266909,74.378988 c 4.406463,1.427932 9.798779,2.179479 15.594398,2.179479 1.6879,0 3.405673,-0.06027 5.138384,-0.195411 6.42298,-0.465958 12.472532,-1.758616 17.461544,-3.742691 0.911167,-0.360754 1.837271,-0.751541 2.763375,-1.202466 l -8.021256,58.996211 c -3.077056,2.34482 -6.796409,3.20158 -11.083376,2.58531 -2.360071,-0.34569 -4.346714,-1.06719 -5.481938,-1.56321 z"
       id="path2974"
       fill="#fac02c"
       style="fill-rule:nonzero;stroke:none;stroke-width:6.84932" /><path
       d="m 31.774844,191.2441 c -5.42219,-4.20865 -8.678492,-8.74797 -9.679282,-13.46767 -0.851418,-4.01324 -0.41824,-9.61976 3.555045,-12.22011 0.955979,-0.6313 2.136014,-1.0221 3.42061,-1.15737 0.104562,-0.0151 0.194185,-0.0301 0.29874,-0.0452 4.58571,9.99554 3.540108,20.93802 2.404884,26.89026"
       id="path2977"
       fill="#ffffff"
       style="fill-rule:nonzero;stroke:none;stroke-width:6.84932" /><path
       d="m 28.309422,141.25139 c -0.08962,-1.14235 0.164308,-2.23961 0.642295,-3.24668 2.091202,0.66137 4.809766,1.2626 7.797199,1.2626 2.942621,0 6.169048,-0.58623 9.305852,-2.25464 0.522801,0.8718 0.851419,1.8488 0.941042,2.88593 v 0 c 0.134431,1.95402 -0.642295,3.893 -2.195763,5.44118 -1.672963,1.66843 -4.018097,2.70556 -6.602226,2.88593 -5.153322,0.37576 -9.589659,-2.75065 -9.888402,-6.97432"
       id="path2980"
       fill="#fac02c"
       style="fill-rule:nonzero;stroke:none;stroke-width:6.84932" /><path
       d="m 51.925077,308.45493 c -0.53774,0.6313 -1.299534,1.0221 -2.136014,1.08222 v 0 c -0.836481,0.0603 -1.628151,-0.21041 -2.255512,-0.75154 -0.627363,-0.5411 -1.015727,-1.30769 -1.075476,-2.14942 L 38.078327,190.01157 c 0.926104,-6.19273 1.344344,-15.34653 -1.747648,-24.41016 l -0.821545,-11.40844 c 0.612425,0.0751 1.239785,0.10521 1.867146,0.10521 0.41824,0 0.836481,-0.0151 1.254722,-0.0452 1.060539,-0.0751 2.091202,-0.25554 3.091993,-0.51102 l 10.963877,152.44321 c 0.0448,0.8267 -0.224055,1.63837 -0.761795,2.26966"
       id="path2983"
       fill="#fac02c"
       style="fill-rule:nonzero;stroke:none;stroke-width:6.84932" /><path
       d="m 77.452692,291.2145 c -5.616377,-1.29265 -11.964671,-2.75065 -18.55196,-4.40405 -0.731921,-0.18037 -1.448905,-0.37577 -2.150952,-0.57117 l -2.285385,-31.74522 c 1.00079,3.11139 2.195763,6.17769 3.599856,9.18387 4.705206,10.08572 11.426927,19.13431 19.970989,26.89024 0.388356,0.36076 0.791664,0.70646 1.194973,1.05217 -0.567603,-0.13528 -1.165103,-0.27055 -1.777521,-0.40582"
       id="path2986"
       fill="#e60012"
       style="fill-rule:nonzero;stroke:none;stroke-width:6.84932" /><path
       d="m 143.16127,307.19233 c -46.648763,0 -84.604093,-34.42072 -84.604093,-76.71762 0,-12.20508 3.062118,-23.86904 9.11167,-34.67625 0.238993,-0.43589 0.224055,-1.05216 0,-1.38284 -0.224055,-0.31569 -0.657233,-0.48096 -1.120288,-0.40582 -1.045601,0.15034 -2.479568,1.23253 -3.674542,2.2396 -2.793249,2.32977 -4.555835,4.96018 -6.228797,7.53046 -2.046391,-0.30062 -4.272028,-1.08223 -5.915116,-1.74358 L 48.48953,170.95241 c 3.943411,1.30769 7.797198,1.71352 11.083374,1.71352 5.242944,0 9.00711,-1.03713 9.261042,-1.11228 0.03014,-0.0151 0.07466,-0.0301 0.104589,-0.0301 l 0.627328,0.0151 c 3.898603,0.0603 8.036199,0.6463 12.308226,1.74358 0.926103,0.24048 2.150952,0.60123 3.450487,0.97701 2.957555,0.87179 6.632096,1.95402 9.963082,2.51015 2.70363,0.45096 5.571572,0.67637 8.573932,0.67637 3.43555,0 6.85616,-0.30061 9.93322,-0.88682 6.46779,-1.23253 12.72646,-4.80988 16.43088,-7.7409 l 2.21069,-1.75861 c 3.91354,0.51103 7.90176,0.7816 11.9348,0.7816 4.51102,0 8.94736,-0.33068 13.29407,-0.97701 l 2.9725,2.31476 c 6.28855,4.88504 17.49142,10.04063 28.32086,10.52162 1.53853,0.0751 3.18162,0.10521 4.85458,0.10521 8.11088,0 16.64,-0.78161 23.92933,-1.54818 l 0.49295,-0.0452 c 4.72014,2.87091 16.71469,12.29527 23.75009,29.50563 8.03619,19.63033 3.36086,32.75229 -7.58808,35.51798 0.0445,-0.31562 0.10459,-0.61631 0.14938,-0.93192 1.03067,-7.28997 1.26966,-15.10604 -0.65726,-22.35092 -0.20911,-0.81167 -0.46308,-1.60831 -0.73191,-2.40495 -0.80661,-2.34481 -1.77753,-4.64454 -3.07707,-6.74886 -0.83648,-1.35278 -3.16667,-5.45621 -5.228,-4.53933 -0.83648,0.37576 -0.86636,1.458 -0.62733,2.17948 2.36007,7.12464 3.55504,14.54989 3.55504,22.0503 -0.0151,42.28188 -37.97027,76.7026 -84.61903,76.7026"
       id="path2989"
       fill="#ffffff"
       style="fill-rule:nonzero;stroke:none;stroke-width:6.84932" /><path
       d="m 242.49341,280.06159 c -2.98744,2.72059 -8.06607,4.99026 -15.08655,6.74886 -6.58728,1.6534 -12.93558,3.1114 -18.55195,4.40405 -0.59746,0.13528 -1.19497,0.27055 -1.79246,0.40582 0.40329,-0.34568 0.80661,-0.70645 1.19498,-1.05216 8.54405,-7.75593 15.26578,-16.80452 19.97098,-26.89025 1.92689,-4.13349 3.46543,-8.44735 4.60065,-12.86643 0.35849,-0.0301 0.71698,-0.0751 1.06054,-0.13528 2.27044,-0.34568 4.40646,-1.00707 6.37816,-1.93899 1.47878,4.74977 3.62973,11.9195 4.97408,17.25546 l 0.0445,0.15034 c 1.19498,4.76479 2.3302,9.27406 -2.79324,13.9186"
       id="path2992"
       fill="#e60012"
       style="fill-rule:nonzero;stroke:none;stroke-width:6.84932" /><path
       d="m 41.125508,129.22668 c 1.672962,-0.99204 3.21149,-1.99911 4.63052,-2.97612 l 0.836482,-6.20775 c -2.748439,-0.91688 -5.332567,-1.87886 -7.722514,-2.8709 3.614794,-2.25463 6.587289,-4.46417 9.00711,-6.53844 l 0.672171,-4.91509 c -0.26887,0.27055 -0.552678,0.52609 -0.836482,0.79664 -3.540107,-1.17242 -6.811345,-2.46507 -9.813715,-3.81785 3.375798,-2.32978 6.183985,-4.614483 8.514183,-6.748867 1.060538,0.511028 2.150951,1.007069 3.271238,1.503089 l 0.448116,-3.246671 c -0.433178,-0.195411 -0.881292,-0.390822 -1.299533,-0.601233 0.582548,-0.586233 1.10535,-1.157377 1.613213,-1.71352 l 0.821544,-6.042418 c -1.254721,1.728554 -3.017307,3.877965 -5.467001,6.297938 -3.495296,-1.75861 -6.647038,-3.562315 -9.455224,-5.350993 2.89781,-2.585308 5.302692,-5.065404 7.244524,-7.28998 2.195763,1.367815 4.869515,2.85587 7.961507,4.268774 l 0.448117,-3.261705 c -2.404884,-1.142343 -4.540899,-2.329781 -6.363233,-3.442069 1.120288,-1.397869 2.031454,-2.645438 2.763375,-3.697596 -1.583339,0.541096 -3.271239,1.007069 -5.003949,1.412898 -0.14937,0.180342 -0.283808,0.360753 -0.433178,0.541096 -0.164308,-0.105206 -0.328616,-0.22548 -0.477986,-0.330685 -1.389157,0.300616 -2.808187,0.556164 -4.257092,0.766575 0.687109,0.541096 1.58334,1.2175 2.68869,1.969041 -1.971706,2.209541 -4.391526,4.689637 -7.319211,7.244891 -3.256304,-2.224548 -6.004742,-4.373959 -8.27519,-6.343007 0.896229,-0.78161 1.687899,-1.488062 2.345134,-2.104322 -1.538527,0 -3.047181,-0.06027 -4.511023,-0.180411 -0.05973,0.06027 -0.1195,0.105205 -0.179247,0.165342 -0.07468,-0.06027 -0.134431,-0.135274 -0.209123,-0.195411 -1.762586,-0.150274 -3.48036,-0.360753 -5.10851,-0.646301 0.806606,0.871788 1.747648,1.848795 2.838061,2.885925 -1.747648,1.382842 -3.734291,2.810774 -5.810557,4.103431 l 0.896231,3.126425 c 2.658818,-1.578219 5.138387,-3.381925 7.259465,-5.095445 2.270448,1.999102 5.003949,4.163548 8.245313,6.418185 -2.599066,2.119356 -5.541687,4.283801 -8.857737,6.403157 -2.270449,-1.683459 -4.197343,-3.291767 -5.79562,-4.74976 l 1.598277,5.561425 c 0.41824,0.330684 0.836481,0.661369 1.284596,1.007068 -0.283808,0.165343 -0.56761,0.330685 -0.851418,0.496027 l 0.89623,3.111391 c 0.926104,-0.526096 1.83727,-1.052158 2.718563,-1.593274 2.718564,1.908925 5.855368,3.86294 9.455224,5.7418 -2.808187,1.71352 -5.944991,3.44207 -9.455224,5.14056 -0.01493,-0.0151 -0.04479,-0.0301 -0.05973,-0.0452 l 1.329408,4.64455 c 2.479568,1.51811 5.347504,3.11139 8.63368,4.70466 -1.971705,1.05216 -4.092783,2.10432 -6.378168,3.14145 l 1.867145,6.49334 c 1.882082,0.90186 3.883662,1.78868 6.049551,2.64544 -1.284596,0.6463 -2.628941,1.29265 -4.033035,1.92395 1.1651,0.45096 2.808187,0.96198 4.690269,1.23253 0.01493,0 0.02986,0 0.0448,0 1.135225,-0.55616 2.240575,-1.12731 3.286176,-1.68346 1.194973,0.42089 2.434758,0.81167 3.704416,1.20248 1.448905,-0.46596 2.808187,-1.15738 4.047972,-2.10433 -1.478785,-0.33057 -2.82313,-0.73641 -4.1376,-1.15727 M 24.963497,95.512406 c 3.301113,-2.164445 6.258672,-4.373986 8.842801,-6.523404 2.823124,1.818739 5.989802,3.652507 9.514973,5.471246 -2.389946,2.11935 -5.272819,4.373987 -8.753178,6.673712 -3.62973,-1.833766 -6.826283,-3.742691 -9.604596,-5.621554 m 0.134432,14.715234 c 3.599856,-1.81873 6.826283,-3.63747 9.679281,-5.45621 3.091993,1.47303 6.482729,2.88593 10.187146,4.16356 -2.569189,2.11935 -5.750805,4.38901 -9.649404,6.70377 -3.958348,-1.8037 -7.349085,-3.6525 -10.21702,-5.41112 m 12.054291,17.64626 c -3.779102,-1.38284 -7.139964,-2.88593 -10.097523,-4.40405 3.10693,-1.39787 5.915117,-2.84083 8.454434,-4.26877 2.897811,1.26259 6.094363,2.51015 9.559785,3.66753 -2.285386,1.62334 -4.914326,3.3068 -7.916696,5.00529"
       id="path2995"
       fill="#f39800"
       style="fill-rule:nonzero;stroke:none;stroke-width:6.84932" /><path
       d="m 162.53477,98.217968 c 4.45127,2.014132 8.37974,2.630402 11.5763,2.765682 0.0596,0 0.11952,0 0.19418,0.0151 0.98585,-2.75065 1.31447,-6.162663 1.09041,-8.582629 l -3.83885,-2.35985 3.58492,-3.036239 c -0.20911,-2.810774 -1.1651,-5.471247 -2.38995,-7.485384 1.74765,0.992041 3.24136,2.690528 4.25709,4.809884 0.37343,0.766575 1.31447,1.052164 2.03146,0.586233 0.5676,-0.375754 0.79166,-1.097254 0.52281,-1.713521 -2.07626,-4.900068 -5.9898,-8.206863 -10.47095,-8.206863 -1.31447,0 -2.56919,0.285616 -3.76416,0.811671 -0.71699,0.22548 -1.41904,0.586233 -2.10615,1.097254 -3.30111,2.450034 -5.64624,7.049486 -6.1093,12.445568 -0.0151,0.180343 -0.0301,0.360754 -0.0445,0.556165 -0.0151,0.135274 -0.0151,0.255548 -0.0151,0.390822 -0.0151,0.330684 -0.0301,0.676369 -0.0301,1.007068 0,1.788678 0.17924,3.442075 0.53774,4.960192 1.28459,0.405822 2.9725,1.03713 4.97407,1.938986"
       id="path2998"
       fill="#0b318f"
       style="fill-rule:nonzero;stroke:none;stroke-width:6.84932" /><path
       d="m 121.4277,116.75104 c -0.73193,-1.51811 -1.53853,-2.97611 -2.59907,-4.26876 -1.83727,-2.23961 -4.43633,-3.80282 -7.37896,-3.7427 -2.47957,0.0452 -4.80977,1.44297 -6.15411,3.6976 -1.55346,2.60034 -1.38916,5.96726 -0.34356,8.76301 1.19497,3.18654 3.83885,5.63658 6.81134,7.1547 3.27124,1.66843 7.03541,2.49513 10.68008,2.61537 4.1824,0.15028 7.93163,-0.87179 8.02125,-0.81167 -2.89781,-2.11935 -4.8247,-4.85497 -6.5126,-7.99642 -0.89623,-1.72856 -1.65803,-3.59239 -2.52438,-5.41113"
       id="path3001"
       fill="#e60012"
       style="fill-rule:nonzero;stroke:none;stroke-width:6.84932" /><path
       d="m 178.08436,120.5238 c -0.0151,-0.0151 -0.0301,-0.0301 -0.0301,-0.0301 -0.97092,-0.97701 -2.53932,-0.88682 -3.42061,0.16534 -5.84043,7.04948 -15.80352,11.679 -27.11095,11.679 -8.05113,0 -15.41515,-2.35985 -21.09128,-6.25285 1.13523,1.51812 2.43476,2.90096 4.04798,4.07337 -0.0747,-0.0452 -2.31526,0.54109 -5.24295,0.75154 6.2288,3.87797 13.93638,6.1777 22.28625,6.1777 12.71153,0 23.95921,-5.32094 30.68093,-13.42259 0.77673,-0.91688 0.73192,-2.28469 -0.11952,-3.14145"
       id="path3004"
       fill="#0b318f"
       style="fill-rule:nonzero;stroke:none;stroke-width:6.84932" /></g></g></svg>
